#!OML:ASF F:\VICON\USERDATA\INSTALL\rory3\rory3.ASF
:FULLY-SPECIFIED
:DEGREES
113
root 0.514527 17.9223 -4.28184 -2.55953 -2.0041 -3.9701
lowerback 10.7087 1.93465 3.80219
upperback -0.0625859 3.12015 1.16706
thorax -5.93906 1.43701 -1.39906
lowerneck -18.6471 -3.55227 -0.899056
upperneck 21.1491 -4.79051 0.414185
head 9.82536 -2.24052 -0.367439
rclavicle -3.40861e-014 -1.91827e-014
rhumerus -23.4034 -13.9778 -79.5131
rradius 33.4934
rwrist -1.82242
rhand -21.1939 23.2724
rfingers 7.12502
rthumb 5.18717 -6.64407
lclavicle -3.40861e-014 -1.91827e-014
lhumerus -37.4781 14.966 74.7454
lradius 16.635
lwrist -3.68856
lhand -29.3125 18.1055
lfingers 7.12502
lthumb -2.65349 48.0688
rfemur 8.28079 5.20871 29.443
rtibia 40.0704
rfoot -7.95094 -5.3198
rtoes -9.86387
lfemur -23.1232 -2.77942 -17.3668
ltibia 25.3387
lfoot -0.746216 -3.61879
ltoes -5.84161
114
root 0.55161 17.9389 -4.0765 -2.56811 -1.95291 -3.75803
lowerback 10.331 1.92251 3.82604
upperback 0.00126325 3.08044 1.07995
thorax -5.65456 1.42315 -1.47994
lowerneck -18.6186 -3.55791 -1.03303
upperneck 21.1441 -4.81557 0.64238
head 9.82875 -2.23607 -0.269012
rclavicle -4.30431e-014 -1.37658e-014
rhumerus -23.8384 -14.6415 -79.3146
rradius 33.442
rwrist -1.7496
rhand -20.7454 23.1006
rfingers 7.12502
rthumb 5.62021 -6.80488
lclavicle -4.30431e-014 -1.37658e-014
lhumerus -37.5545 15.163 74.5294
lradius 16.7912
lwrist -4.3607
lhand -30.3021 17.4586
lfingers 7.12502
lthumb -3.60915 47.4078
rfemur 7.21121 4.70959 28.771
rtibia 42.5353
rfoot -5.26829 -4.22944
rtoes -7.26022
lfemur -22.7128 -2.55002 -17.8787
ltibia 25.926
lfoot -1.06501 -3.15588
ltoes -6.86119
115
root 0.579787 17.9493 -3.88565 -2.68677 -2.11045 -3.68717
lowerback 10.3127 1.97451 3.87883
upperback 0.0738959 3.15127 1.06342
thorax -5.56033 1.45925 -1.53428
lowerneck -18.5845 -3.59272 -1.0722
upperneck 21.0469 -4.86601 0.704133
head 9.79123 -2.25643 -0.246302
rclavicle -1.54136e-014 -1.35174e-014
rhumerus -24.1197 -15.1903 -79.1779
rradius 33.2781
rwrist -1.62619
rhand -20.8905 23.0044
rfingers 7.12502
rthumb 5.48004 -6.90474
lclavicle -1.54136e-014 -1.35174e-014
lhumerus -37.5496 13.9197 75.3233
lradius 17.5866
lwrist -2.59147
lhand -30.1373 17.8612
lfingers 7.12502
lthumb -3.45001 47.813
rfemur 6.02872 4.45272 28.3512
rtibia 45.0573
rfoot -2.64047 -3.19377
rtoes -3.4772
lfemur -22.2297 -2.2877 -18.1571
ltibia 26.5399
lfoot -1.55348 -3.17248
ltoes -5.54619
116
root 0.603629 17.9509 -3.7052 -2.66817 -2.1376 -3.64182
lowerback 10.4413 1.97459 3.86652
upperback -0.0743173 3.162 1.06621
thorax -5.78946 1.45782 -1.53535
lowerneck -18.418 -3.54501 -1.00387
upperneck 21.1195 -4.81325 0.664113
head 9.78278 -2.23187 -0.261703
rclavicle 3.80486e-015 -2.73329e-015
rhumerus -24.5957 -15.4662 -79.0189
rradius 33.0954
rwrist -1.48549
rhand -21.034 22.875
rfingers 7.12502
rthumb 5.34154 -7.03768
lclavicle 3.80486e-015 -2.73329e-015
lhumerus -37.6883 13.1253 75.7639
lradius 18.0696
lwrist -1.41325
lhand -29.6498 19.7265
lfingers 7.12502
lthumb -2.97925 49.6854
rfemur 4.53312 4.14605 28.0086
rtibia 47.6419
rfoot -0.337093 -1.95668
rtoes 1.13869
lfemur -21.8994 -2.05327 -18.3797
ltibia 26.966
lfoot -1.99998 -3.76128
ltoes -3.82992
117
root 0.625517 17.9659 -3.52614 -2.71221 -1.99547 -3.46915
lowerback 10.6759 1.90427 3.69286
upperback -0.252948 3.06516 1.06512
thorax -6.12449 1.40571 -1.43941
lowerneck -18.3235 -3.47089 -0.955974
upperneck 21.351 -4.70735 0.571779
head 9.8427 -2.18853 -0.287975
rclavicle -3.43929e-014 -2.60905e-014
rhumerus -25.1242 -15.4732 -78.8725
rradius 32.863
rwrist -1.30386
rhand -20.9355 22.6861
rfingers 7.12502
rthumb 5.43659 -7.22415
lclavicle -3.43929e-014 -2.60905e-014
lhumerus -37.8244 13.0816 75.7853
lradius 18.0502
lwrist -0.862729
lhand -30.0092 18.9528
lfingers 7.12502
lthumb -3.32634 48.9066
rfemur 3.08117 3.83945 27.6233
rtibia 50.2514
rfoot 0.900929 -0.921171
rtoes 5.27492
lfemur -21.3745 -2.06142 -18.7568
ltibia 27.1967
lfoot -2.32986 -3.93876
ltoes -3.31818
118
root 0.642793 17.9892 -3.34493 -2.85973 -2.04191 -2.86224
lowerback 10.8008 1.93716 3.08439
upperback -0.211069 3.02613 0.902085
thorax -6.1738 1.40233 -1.26809
lowerneck -18.5263 -3.46739 -0.87848
upperneck 21.5481 -4.71127 0.504495
head 9.94658 -2.18869 -0.330994
rclavicle 2.61681e-015 1.06847e-014
rhumerus -25.2914 -15.7139 -78.853
rradius 32.5175
rwrist -1.19397
rhand -20.4342 22.7963
rfingers 7.12502
rthumb 5.92067 -7.10095
lclavicle 2.61681e-015 1.06847e-014
lhumerus -37.6124 11.4105 76.9355
lradius 18.563
lwrist 2.58968
lhand -32.2247 18.576
lfingers 7.12502
lthumb -5.46572 48.4855
rfemur 1.82241 3.72248 26.793
rtibia 52.8311
rfoot 0.729599 -0.412831
rtoes 6.59516
lfemur -20.5965 -1.98817 -19.5909
ltibia 27.2965
lfoot -2.61174 -3.6059
ltoes -3.4581
119
root 0.661093 18.0007 -3.17132 -2.92873 -2.21855 -2.05962
lowerback 10.8852 2.04545 2.2604
upperback -0.188036 3.05494 0.699954
thorax -6.22653 1.43831 -1.02602
lowerneck -18.5195 -3.44922 -0.845707
upperneck 21.5069 -4.70372 0.539698
head 9.93071 -2.17874 -0.322395
rclavicle -2.10696e-014 -9.44227e-015
rhumerus -25.5871 -15.8741 -78.8128
rradius 32.3418
rwrist -1.05986
rhand -20.0033 23.2583
rfingers 7.12502
rthumb 6.3366 -6.62687
lclavicle -2.10696e-014 -9.44227e-015
lhumerus -37.5434 11.679 76.5104
lradius 18.964
lwrist 0.467148
lhand -30.2352 19.6462
lfingers 7.12502
lthumb -3.54464 49.5964
rfemur 0.359798 3.71444 25.7552
rtibia 55.393
rfoot -0.183246 -0.759796
rtoes 5.28782
lfemur -19.8773 -1.80128 -20.6222
ltibia 27.2449
lfoot -2.86668 -3.37123
ltoes -3.21553
120
root 0.679245 18.0225 -2.99594 -2.87532 -2.3344 -1.44951
lowerback 10.8403 2.09272 1.58694
upperback -0.193807 3.02531 0.608783
thorax -6.23752 1.44343 -0.737896
lowerneck -18.4555 -3.38858 -0.91658
upperneck 21.4219 -4.61052 0.594898
head 9.89135 -2.13622 -0.276339
rclavicle -3.33943e-014 -2.18663e-015
rhumerus -25.92 -15.7859 -78.7727
rradius 32.2634
rwrist -0.973006
rhand -19.9691 23.2775
rfingers 7.12502
rthumb 6.36962 -6.60671
lclavicle -3.33943e-014 -2.18663e-015
lhumerus -37.5107 11.403 76.6841
lradius 19.5658
lwrist 0.388888
lhand -29.3027 21.0394
lfingers 7.12502
lthumb -2.64402 51.0028
rfemur -1.33456 3.67149 24.9614
rtibia 57.8649
rfoot -0.740719 -1.92906
rtoes 3.54932
lfemur -19.1225 -1.63774 -21.435
ltibia 27.0269
lfoot -3.36862 -3.30256
ltoes -2.79137
121
root 0.696843 18.0449 -2.82151 -2.9305 -2.41117 -1.08125
lowerback 10.8801 2.09719 1.21517
upperback -0.102949 2.97877 0.54139
thorax -6.17993 1.43209 -0.592227
lowerneck -18.7295 -3.38824 -0.892318
upperneck 21.5298 -4.59636 0.511267
head 9.97763 -2.13473 -0.313973
rclavicle 9.25591e-015 6.95746e-016
rhumerus -25.9048 -16.0112 -78.7991
rradius 31.8792
rwrist -0.55154
rhand -19.9406 23.1848
rfingers 7.12502
rthumb 6.39721 -6.69857
lclavicle 9.25591e-015 6.95746e-016
lhumerus -37.288 10.9627 76.9352
lradius 20.0395
lwrist 1.05366
lhand -28.7775 21.9286
lfingers 7.12502
lthumb -2.13682 51.8977
rfemur -2.93085 3.63256 24.4714
rtibia 60.2063
rfoot -1.04442 -3.20438
rtoes 4.68692
lfemur -18.3029 -1.68807 -21.9507
ltibia 26.8848
lfoot -3.75504 -3.04954
ltoes -2.15861
122
root 0.710882 18.0545 -2.65569 -2.97216 -2.38287 -0.594114
lowerback 11.0046 2.10238 0.788787
upperback -0.0866922 2.92188 0.373362
thorax -6.24603 1.41395 -0.524849
lowerneck -19.0487 -3.39162 -0.868805
upperneck 21.7241 -4.61315 0.524265
head 10.1064 -2.13482 -0.324005
rclavicle -3.73032e-015 -5.86415e-015
rhumerus -26.0386 -16.1977 -78.882
rradius 31.4907
rwrist -0.254886
rhand -20.0262 23.2949
rfingers 7.12502
rthumb 6.31455 -6.59103
lclavicle -3.73032e-015 -5.86415e-015
lhumerus -37.0439 10.393 77.052
lradius 20.2159
lwrist 1.88489
lhand -28.5964 18.2021
lfingers 7.12502
lthumb -1.96192 48.1728
rfemur -4.59353 3.46288 23.855
rtibia 62.3979
rfoot -1.57521 -4.11697
rtoes 5.92073
lfemur -17.7352 -1.81277 -22.5701
ltibia 26.8674
lfoot -4.00802 -2.7905
ltoes -0.0661719
123
root 0.723387 18.0603 -2.48741 -3.10955 -2.42419 -0.349192
lowerback 11.0917 2.07211 0.564376
upperback -0.0150127 2.84955 0.325783
thorax -6.22857 1.38481 -0.438977
lowerneck -18.9878 -3.33063 -0.773111
upperneck 21.5143 -4.51934 0.391805
head 10.0132 -2.10216 -0.369169
rclavicle 8.92046e-015 3.77691e-015
rhumerus -26.1942 -16.2276 -78.9544
rradius 31.1021
rwrist 0.201141
rhand -20.3806 23.4776
rfingers 7.12502
rthumb 5.97232 -6.41818
lclavicle 8.92046e-015 3.77691e-015
lhumerus -36.6688 10.4215 76.9774
lradius 20.0767
lwrist 2.05685
lhand -28.2229 15.1925
lfingers 7.12502
lthumb -1.60121 45.1663
rfemur -6.0968 3.30691 23.51
rtibia 64.3534
rfoot -2.21047 -4.88031
rtoes 6.61733
lfemur -17.0288 -1.63309 -22.9795
ltibia 27.0016
lfoot -4.70559 -2.56896
ltoes -0.397351
124
root 0.735821 18.0624 -2.32117 -3.28813 -2.454 -0.0387247
lowerback 11.2459 2.00621 0.202019
upperback 0.0596843 2.7159 0.340649
thorax -6.2551 1.33027 -0.202638
lowerneck -18.6063 -3.31232 -0.786463
upperneck 21.0701 -4.43043 0.176121
head 9.77845 -2.0945 -0.417139
rclavicle -1.13152e-014 2.68359e-015
rhumerus -26.2742 -16.4815 -78.8826
rradius 30.5741
rwrist 0.920183
rhand -20.4084 24.0215
rfingers 7.12502
rthumb 5.94553 -5.8751
lclavicle -1.13152e-014 2.68359e-015
lhumerus -36.3712 10.4527 77.1301
lradius 20.4983
lwrist 2.1332
lhand -28.7008 15.0382
lfingers 7.12502
lthumb -2.06273 45.008
rfemur -7.50539 3.1184 23.0756
rtibia 66.0867
rfoot -2.93753 -5.67151
rtoes 8.25973
lfemur -16.2655 -1.35034 -23.45
ltibia 27.2164
lfoot -5.46682 -2.4831
ltoes -0.0287854
125
root 0.748363 18.0604 -2.16212 -3.38997 -2.2281 -0.037702
lowerback 11.4256 1.85514 0.17388
upperback 0.094431 2.51635 0.41411
thorax -6.32436 1.23388 -0.0826218
lowerneck -18.4857 -3.24918 -0.798356
upperneck 20.9648 -4.32494 0.122363
head 9.71739 -2.05458 -0.415799
rclavicle -1.00448e-014 -4.87022e-015
rhumerus -26.4467 -16.599 -78.8653
rradius 30.3943
rwrist 1.14159
rhand -20.1187 23.7778
rfingers 7.12502
rthumb 6.22517 -6.11072
lclavicle -1.00448e-014 -4.87022e-015
lhumerus -36.2776 10.1337 77.3674
lradius 21.2018
lwrist 2.37756
lhand -30.7156 2.43713
lfingers 7.12502
lthumb -4.00846 32.3792
rfemur -8.79868 2.64883 23.0225
rtibia 67.5182
rfoot -3.8284 -6.39173
rtoes 8.13457
lfemur -15.6926 -1.38178 -23.5564
ltibia 27.53
lfoot -6.1101 -2.4842
ltoes 0.366906
126
root 0.762356 18.0751 -1.99638 -3.47622 -1.95002 0.0408142
lowerback 11.5283 1.72462 0.206158
upperback 0.151551 2.34328 0.357471
thorax -6.31773 1.14712 -0.133544
lowerneck -18.5318 -3.15221 -0.72735
upperneck 20.9309 -4.23087 0.208526
head 9.71406 -1.99508 -0.385069
rclavicle 2.3351e-014 2.98177e-016
rhumerus -26.5453 -16.9446 -78.9376
rradius 30.0078
rwrist 1.60231
rhand -20.4962 23.6804
rfingers 7.12502
rthumb 5.86076 -6.21854
lclavicle 2.3351e-014 2.98177e-016
lhumerus -35.9679 9.8823 77.3324
lradius 21.3785
lwrist 2.48583
lhand -28.3338 18.4221
lfingers 7.12502
lthumb -1.70832 48.395
rfemur -9.97311 2.17899 22.8707
rtibia 68.6469
rfoot -4.50113 -6.86869
rtoes 7.71028
lfemur -14.951 -1.50001 -23.7677
ltibia 27.6356
lfoot -6.65719 -2.38448
ltoes 1.17075
127
root 0.775479 18.1015 -1.82355 -3.54187 -1.95588 0.00789803
lowerback 11.4144 1.62418 0.251761
upperback 0.289377 2.21808 0.419168
thorax -6.10874 1.0865 -0.0674503
lowerneck -18.7041 -3.09218 -0.946483
upperneck 20.9833 -4.12896 0.399834
head 9.77387 -1.94149 -0.272228
rclavicle 1.68408e-014 3.18055e-015
rhumerus -26.4137 -17.5316 -78.9111
rradius 29.369
rwrist 2.55135
rhand -20.8727 23.5285
rfingers 7.12502
rthumb 5.49721 -6.38017
lclavicle 1.68408e-014 3.18055e-015
lhumerus -35.5345 9.73128 77.4252
lradius 21.4899
lwrist 2.77344
lhand -27.4612 23.0041
lfingers 7.12502
lthumb -0.865527 52.9821
rfemur -11.2239 2.10977 22.8919
rtibia 69.4902
rfoot -4.72613 -7.30637
rtoes 7.90758
lfemur -14.1083 -1.3739 -23.832
ltibia 27.5353
lfoot -7.19384 -2.2555
ltoes 1.18451
